<?xml version="1.0" encoding="utf-8"?>
<!-- Generator: Adobe Illustrator 26.0.3, SVG Export Plug-In . SVG Version: 6.00 Build 0)  -->
<svg version="1.1" id="svg2" xmlns:svg="http://www.w3.org/2000/svg"
	 xmlns="http://www.w3.org/2000/svg" xmlns:xlink="http://www.w3.org/1999/xlink" x="0px" y="0px" viewBox="0 0 64 64"
	 style="enable-background:new 0 0 64 64;" xml:space="preserve">
<style type="text/css">
	.st0{fill:#FFFFFF;}
</style>
<g id="layer1" transform="translate(0,-8.576477)">
	<path id="Rey" class="st0" d="M30.9,10l-0.1,3l-4.6,0.1v2l4.6,0.1v5.5l-0.9,0.4c-1.6,0.8-2.9,2.4-3.6,4.5C26,26.5,26,26.9,26,28.6
		c0,2.3,0.2,3.4,1.2,6.4c0.3,1.1,0.6,2,0.6,2.1s-0.5-0.4-1-1c-3.7-4.3-9.1-7.7-14-8.6c-4.6-0.9-9,1.2-10.9,5.1
		c-1.4,2.8-1.4,5.5-0.1,8.3c0.7,1.4,1.3,2.3,3.4,5.1c1.7,2.3,3.2,4.5,4.4,6.5c0.4,0.7,0.9,1.5,1,1.6c0.2,0.2,0.3,0.9,0.5,3.4
		c0.4,3.9,0.4,4.1,0,7.2c-0.3,2.5-0.3,2.5,0,2.7c4.7,2.5,8.9,3.7,21,3.7c12.1,0,16.2-1.2,21-3.7c0.3-0.1,0.3-0.3,0-2.7
		c-0.4-3.1-0.4-3.3,0-7.2c0.2-2.5,0.3-3.2,0.5-3.4c0.1-0.2,0.6-0.9,1-1.6c1.2-2.1,2.6-4.3,4.4-6.5c2.1-2.8,2.7-3.7,3.4-5.1
		c1.3-2.8,1.3-5.5-0.1-8.3c-1.9-3.9-6.3-5.9-10.9-5.1c-4.8,0.9-10.3,4.3-14,8.6c-0.5,0.6-1,1.1-1,1c0-0.1,0.2-1,0.6-2.1
		c1-3,1.2-4.1,1.1-6.4c0-1.7-0.1-2.1-0.3-2.9c-0.7-2-2.1-3.7-3.6-4.5L33,20.8l0.1-5.6l4.4-0.1v-2L33.1,13l-0.1-3H30.9z M31.9,21.8
		c1.3,0,1.9,0.3,3,1.3c1.5,1.5,2.1,3.6,2,6.4c-0.1,2.2-0.5,3.4-2.8,10.2c-1.2,3.4-2.1,6.2-2.2,6.2c-0.1,0-4.3-12.5-4.6-13.7
		c-0.9-3.9-0.3-7.2,1.6-9.1C29.9,22.1,30.5,21.8,31.9,21.8z M31.9,23.5c-0.8,0-1,0.1-1.5,0.4c-0.3,0.2-0.8,0.7-1,1.1
		c-1.7,2.7-1.2,7,1.9,15.6c0.3,0.9,0.6,1.6,0.7,1.6c0.2,0,2-5.4,2.7-8.1c1.4-5.3,1-8.8-1.2-10.2C32.9,23.6,32.7,23.5,31.9,23.5z
		 M10.6,28.4c1.7,0,2.2,0.1,3.4,0.4c3.7,1,7.3,3.2,10.6,6.4c1.9,1.9,3.2,3.7,4.3,5.8c0.8,1.6,1.1,2.6,1.9,6.3l0.3,2.3h1.8l0.2-2.3
		c0.7-3.6,1.1-4.7,1.9-6.3c1.1-2.1,2.4-3.9,4.3-5.8c3.2-3.2,6.9-5.4,10.6-6.4c1.2-0.3,1.7-0.4,3.4-0.4c1.8,0,2.1,0,3.1,0.4
		c4.8,1.6,7.1,7,4.9,11.8c-0.5,1.1-1.2,2.1-3.2,4.8c-1.8,2.4-3.2,4.4-4.6,7c-1,1.8-1.6,2.5-2.2,2.5c-0.1,0-1.1-0.2-2-0.5
		c-3.1-0.9-6.8-1.6-10.6-2c-3.1-0.3-10.3-0.3-13.4,0c-3.8,0.4-7.6,1.1-10.6,2c-1,0.3-1.9,0.5-2,0.5c-0.5,0-1.1-0.7-2.2-2.5
		c-1.5-2.6-2.8-4.6-4.6-7c-2-2.7-2.7-3.7-3.2-4.8c-2.2-4.8,0.1-10.2,4.9-11.8C8.5,28.4,8.8,28.4,10.6,28.4z M10.4,29.4
		c-3.4,0-6.1,2.1-6.9,5.4c-0.4,1.9-0.2,3.9,0.8,5.9C4.9,42,5.5,42.9,8,46.3c0.9,1.2,2.2,3,2.8,4.1c1.1,1.8,1.2,1.9,1.6,1.9
		c0.2,0,1.2-0.3,2.2-0.6c4.3-1.2,10.1-2.1,14-2.1h1.5L30,48.9c0-1.9-1.1-5.3-2.3-7.6c-3.1-5.4-10-10.7-15.3-11.7
		C11.7,29.5,11.1,29.4,10.4,29.4z M53.1,29.4c-2.5,0-5.5,1.1-8.6,3.2c-3.7,2.5-6.7,5.5-8.5,8.6c-1.3,2.2-2.3,5.7-2.3,7.6v0.7
		l2.4,0.1c4.1,0.2,8.1,0.7,12.2,1.8c1.2,0.3,2.3,0.6,2.5,0.7c0.8,0.3,0.9,0.3,2.1-1.8c0.7-1.1,1.9-2.9,2.8-4.1
		c3.3-4.4,4.1-5.8,4.5-7.8c0.6-2.7-0.2-5.6-2-7.2C56.8,30,55.1,29.4,53.1,29.4z M31.9,57.1c4.8,0,7.7,0.3,12.2,1.4
		c2.3,0.5,6.2,1.8,6.9,2.2c0.5,0.3,0.7,0.9,0.4,1.4c-0.4,0.7-0.8,0.7-2.5,0c-3.4-1.2-7.2-2.2-11.1-2.7c-2.6-0.3-9.2-0.3-11.8,0
		c-3.8,0.5-7.7,1.4-11,2.7c-0.8,0.3-1.6,0.6-1.8,0.6c-0.3,0-0.9-0.6-0.9-1c0-0.8,0.8-1.2,4.3-2.3C21.7,57.7,26.2,57.1,31.9,57.1z
		 M31.9,62.5c4.8,0,7.7,0.3,12.2,1.4c2.3,0.5,6.2,1.8,6.9,2.2c0.5,0.3,0.7,0.9,0.4,1.4c-0.4,0.7-0.8,0.7-2.5,0
		c-3.4-1.2-7.2-2.2-11.1-2.7c-2.6-0.3-9.2-0.3-11.8,0c-3.8,0.5-7.7,1.4-11,2.7c-0.8,0.3-1.6,0.6-1.8,0.6c-0.3,0-0.9-0.6-0.9-1
		c0-0.8,0.8-1.2,4.3-2.3C21.7,63.1,26.2,62.5,31.9,62.5z"/>
</g>
</svg>
