<?xml version="1.0" encoding="utf-8"?>
<!-- Generator: Adobe Illustrator 26.0.3, SVG Export Plug-In . SVG Version: 6.00 Build 0)  -->
<svg version="1.1"
	 id="Layer_1" xmlns:cc="http://creativecommons.org/ns#" xmlns:dc="http://purl.org/dc/elements/1.1/" xmlns:rdf="http://www.w3.org/1999/02/22-rdf-syntax-ns#"
	 xmlns="http://www.w3.org/2000/svg" xmlns:xlink="http://www.w3.org/1999/xlink" x="0px" y="0px" viewBox="0 0 26 26"
	 style="enable-background:new 0 0 26 26;" xml:space="preserve">
<style type="text/css">
	.st0{fill-rule:evenodd;clip-rule:evenodd;stroke:#000000;stroke-linecap:round;}
</style>
<path class="st0" d="M13,5.8c0,0,0-2.3-0.5-2c-1,0.5-1.5,2-1.5,2h-1c0,0-1.1-2.2-1.5-1.5c-0.3,0.5-0.4,1.4,0,2c-0.1,0.9-1,2-1,2
	S4,13.6,4,14.8c0,2.9,1.9,2.5,2.5,2.5c0.7-0.4-0.1-1.5,0.5-1.5c0.8,0-0.6,1.5,0,2c1.3,0.2,1.3-1.3,3-2.5c1-0.7,3.1-2.1,4-3.5
	l0.5-1.5c0.1,0.5-0.1,1-0.5,1.5l0,0c0.3,6.8-4.5,5.6-4.5,10.5H22C22.3,10.1,19.1,6.3,13,5.8z M10.4,9.8C10,10.6,9.2,11,8.7,10.7
	S8,9.5,8.5,8.7c0,0,0,0,0,0c0.5-0.8,1.2-1.1,1.8-0.8C10.8,8.2,10.9,9.1,10.4,9.8z"/>
</svg>
