<?xml version="1.0" encoding="utf-8"?>
<!-- Generator: Adobe Illustrator 26.0.3, SVG Export Plug-In . SVG Version: 6.00 Build 0)  -->
<svg version="1.1" id="svg2274" xmlns:svg="http://www.w3.org/2000/svg"
	 xmlns="http://www.w3.org/2000/svg" xmlns:xlink="http://www.w3.org/1999/xlink" x="0px" y="0px" viewBox="0 0 64 64"
	 style="enable-background:new 0 0 64 64;" xml:space="preserve">
<style type="text/css">
	.st0{fill:#FFFFFF;}
</style>
<path id="path2288" class="st0" d="M31.4,8c-4.4,0-8,3.7-8,8.2c0,2,0.7,3.8,1.8,5.2c-2.7,2.3-4.5,6-4.5,9.7c0,1.9,0.4,3.7,1.2,5.2
	C16.6,40.6,13.1,47.9,15,56H49c2-7.9-1.9-15.5-7.4-19.9c0.7-1.5,1.2-3.2,1.2-5c0-3.9-1.9-7.7-4.9-10c1-1.4,1.6-3.1,1.6-4.9
	C39.4,11.7,35.8,8,31.4,8z"/>
</svg>
