<?xml version="1.0" encoding="utf-8"?>
<!-- Generator: Adobe Illustrator 26.0.3, SVG Export Plug-In . SVG Version: 6.00 Build 0)  -->
<svg version="1.1" id="svg2" xmlns:svg="http://www.w3.org/2000/svg"
	 xmlns="http://www.w3.org/2000/svg" xmlns:xlink="http://www.w3.org/1999/xlink" x="0px" y="0px" viewBox="0 0 64 64"
	 style="enable-background:new 0 0 64 64;" xml:space="preserve">
<style type="text/css">
	.st0{fill:#FFFFFF;}
</style>
<path id="path2161" class="st0" d="M23,58.4c-2.6-0.2-5.1-0.7-7-1.5c-1.2-0.5-2.7-1.2-2.8-1.4c0-0.1,0.5-1.4,1.1-2.9
	c0.7-1.5,1.2-2.9,1.2-2.9c0-0.2-2-4.8-2.4-5.6c-0.1-0.3-1.3-1.7-2.5-3.2l-2.3-2.8l-0.2-1.2C8,36.2,7.4,31.2,6.7,25.8l-1.2-9.8
	l-0.7-0.1c-2.1-0.3-3.3-2.1-2.7-4c0.3-0.8,0.7-1.3,1.4-1.8C4,9.8,4.3,9.7,5.1,9.7s1,0.1,1.5,0.3c0.8,0.5,1.2,1,1.4,1.8
	c0.5,1.4-0.1,2.9-1.4,3.6c-0.1,0.1,0.8,2.1,4.7,10.1c2.7,5.5,4.8,10,4.9,10c0,0,1.4-23.8,1.4-24.2c0-0.3-0.1-0.4-0.6-0.5
	c-0.8-0.2-1.5-0.8-2-1.5c-0.3-0.5-0.4-0.7-0.4-1.6c0-0.8,0-1,0.4-1.6c1.3-2.1,4.2-2.1,5.5,0c0.3,0.6,0.4,0.7,0.4,1.6
	c0,0.9,0,1-0.4,1.6c-0.2,0.4-0.6,0.8-1,1l-0.6,0.4l4,11.6c2.2,6.4,4,11.6,4.1,11.6c0,0,4.2-23.7,4.5-25.6c0-0.1-0.2-0.2-0.5-0.3
	c-0.7-0.2-1.3-0.8-1.7-1.4c-0.3-0.5-0.4-0.7-0.4-1.6c0-0.8,0-1,0.4-1.6c1.3-2.1,4.2-2.1,5.5,0c0.3,0.6,0.4,0.7,0.4,1.6
	c0,0.8-0.1,1-0.4,1.6c-0.4,0.7-1,1.2-1.7,1.4c-0.3,0.1-0.5,0.2-0.5,0.3C32.9,10.3,37,34,37.1,34c0,0,1.9-5.2,4.1-11.6l4-11.6
	l-0.6-0.4c-0.4-0.3-0.8-0.7-1-1c-0.3-0.6-0.4-0.7-0.4-1.6c0-0.9,0-1,0.4-1.6c1.3-2.1,4.2-2.1,5.5,0c0.3,0.6,0.4,0.7,0.4,1.6
	c0,0.8-0.1,1-0.4,1.6c-0.4,0.7-1.2,1.3-2,1.5c-0.5,0.1-0.5,0.2-0.6,0.5c0,0.4,1.3,24.3,1.4,24.2c0,0,2.2-4.5,4.9-10
	c3.9-8,4.8-10,4.7-10.1c-1.3-0.7-1.9-2.3-1.4-3.6c0.3-0.8,0.7-1.3,1.4-1.8c0.5-0.3,0.7-0.3,1.5-0.3s1,0.1,1.5,0.3
	c0.8,0.5,1.2,1,1.4,1.8c0.6,1.9-0.6,3.8-2.7,4l-0.7,0.1l-1.2,9.8c-0.7,5.4-1.3,10.4-1.4,11.1l-0.2,1.2l-2.3,2.8
	c-1.3,1.5-2.4,3-2.5,3.2c-0.4,0.8-2.4,5.4-2.4,5.6c0,0.1,0.5,1.4,1.2,2.9c0.7,1.5,1.2,2.8,1.1,2.9c-0.3,0.5-3.3,1.8-5.3,2.2
	c-2.8,0.7-3.4,0.7-12.7,0.8C28.2,58.5,23.7,58.5,23,58.4z M17.1,56c0.6-0.3,4-1.4,5.4-1.8c3.3-0.8,5.7-1.1,9.5-1.1
	c3,0,4.3,0.1,6.7,0.5c2.4,0.4,5.2,1.2,7.6,2.1l1,0.4l0.5-0.2c0.5-0.3,0.6-0.4,0.5-0.9c-0.1-0.4-0.7-0.7-2.8-1.4
	c-7.2-2.5-14.4-3-21.8-1.4c-2.5,0.5-6.1,1.6-7.4,2.3c-0.8,0.4-0.9,1-0.1,1.4C16.7,56.2,16.7,56.2,17.1,56z M20,49.6
	c2.4-1,5-1.8,7.7-2.2c2-0.3,6.6-0.3,8.5,0c2.8,0.4,5.6,1.2,8.3,2.5c1.3,0.6,1.5,0.6,1.8,0.5c0.7-0.2,0.8-1,0.2-1.5
	c-0.8-0.7-4.9-2.2-7.6-2.8c-2.8-0.6-4-0.7-7.1-0.7s-4.3,0.1-7.1,0.7c-2.6,0.6-6.7,2.1-7.6,2.8c-0.6,0.5-0.5,1.2,0.2,1.4
	c0.3,0.1,0.4,0.1,0.7,0C18.5,50.3,19.3,49.9,20,49.6z M17.6,44.1c2.9-1.1,6.1-1.9,9.5-2.3c2.2-0.3,7.7-0.3,9.8,0
	c3.4,0.4,6.5,1.2,9.5,2.3c1.8,0.7,2,0.7,2.4,0.1c0.3-0.5,0.1-0.9-0.6-1.3c-1-0.5-3.8-1.4-5.8-1.9c-3.9-1-6.3-1.2-10.4-1.2
	c-1.8,0-3.6,0.1-4.4,0.2c-4.1,0.5-7.6,1.4-11,2.6c-1.2,0.5-1.6,0.7-1.6,1.2c0,0.3,0.5,0.9,0.8,0.9C16,44.6,16.8,44.4,17.6,44.1z"/>
</svg>
