<?xml version="1.0" encoding="utf-8"?>
<!-- Generator: Adobe Illustrator 26.0.3, SVG Export Plug-In . SVG Version: 6.00 Build 0)  -->
<svg version="1.1" id="svg1923" xmlns:svg="http://www.w3.org/2000/svg"
	 xmlns="http://www.w3.org/2000/svg" xmlns:xlink="http://www.w3.org/1999/xlink" x="0px" y="0px" viewBox="0 0 64 64"
	 style="enable-background:new 0 0 64 64;" xml:space="preserve">
<style type="text/css">
	.st0{fill:#FFFFFF;}
	.st1{fill-rule:evenodd;clip-rule:evenodd;fill:#FFFFFF;}
</style>
<path id="path1932" class="st0" d="M35.3,9.8c0,1.8-1.5,3.2-3.2,3.2s-3.2-1.5-3.2-3.2l0,0c0-1.8,1.5-3.2,3.2-3.2S35.3,8,35.3,9.8z"
	/>
<path class="st1" d="M47.6,52.2c-12.1,1.3-13.7-3.5-13.7-3.5s4.5,0.3,9.6-3c0.2-0.1-1.9-7.4-1.8-7.5c6.4-3.7,6.2-9.5,2.8-15.3
	C42.9,20.4,32.1,13,32.1,13s-9.7,6.4-11.7,9.2c-7.9,10.4,2.2,16.1,2.2,16.1s-2,7.4-1.8,7.5c3.9,2.5,9.6,3.4,9.6,3.4s-2.1,4-10.6,3
	c-8.1-1-13.6,4.6-13.6,4.6l3.9,3.7c0,0,3.7-4.1,10.8-3.5c6.7,0.6,11.2-2.8,11.2-2.8s3.7,3.3,12.3,2.8c5.8-0.3,10.1,3.4,10.1,3.4
	l3.5-3.7C57.9,56.5,53.9,51.5,47.6,52.2z M27.3,25.1H31v-3.6h2.2v3.6h3.4v2.2h-3.4V31H31v-3.7h-3.6V25.1z M39.3,37.4
	c0,0-0.7,1.4-0.7,1.4c-2.8-1.9-9.8-2.1-13.1,0c0,0-0.9-1.3-0.9-1.4C28.7,34.8,36,35,39.3,37.4z M24.7,46c0,0-1-1.1-1-1.2
	c4.7-4,12.6-3.6,16.5,0c0,0-0.8,1.2-0.9,1.2C36.1,43.4,28.4,42.6,24.7,46z"/>
</svg>
