<?xml version="1.0" encoding="utf-8"?>
<!-- Generator: Adobe Illustrator 26.0.3, SVG Export Plug-In . SVG Version: 6.00 Build 0)  -->
<svg version="1.1" id="Layer_1" xmlns:svg="http://www.w3.org/2000/svg"
	 xmlns="http://www.w3.org/2000/svg" xmlns:xlink="http://www.w3.org/1999/xlink" x="0px" y="0px" viewBox="0 0 64 64"
	 style="enable-background:new 0 0 64 64;" xml:space="preserve">
<style type="text/css">
	.st0{fill:#FFFFFF;}
</style>
<path class="st0" d="M11.4,54.7v-2.3H13h1.6v-2.7v-2.7l2.7-2.8l2.7-2.8v-9.5v-9.5l-3.1-2.3l-3.1-2.3l0-4.3l0-4.3h3.6H21v1.9v1.9h3.3
	h3.3v-1.9V9H32h4.4v1.9v1.9h3.3H43v-1.9V9h3.6h3.6l0,4.3l0,4.3l-3.1,2.3l-3.1,2.3l0,9.5l0,9.5l2.7,2.8l2.7,2.8l0,2.7l0,2.7H51h1.6
	v2.3V57H32H11.4V54.7z M46.9,52.9c0.5-0.4,0.4-1-0.1-1.4c-0.1-0.1-3.5-0.1-14.8-0.1c-14.4,0-14.7,0-14.9,0.2c-0.5,0.4-0.4,1,0.1,1.4
	c0.1,0.1,3.5,0.1,14.8,0.1C46.4,53.1,46.7,53.1,46.9,52.9z M46.9,47.6c0.5-0.4,0.4-1-0.1-1.4c-0.1-0.1-3.5-0.1-14.8-0.1
	c-14.4,0-14.7,0-14.9,0.2c-0.5,0.4-0.4,1,0.1,1.4c0.1,0.1,3.5,0.1,14.8,0.1C46.4,47.8,46.7,47.8,46.9,47.6z M41.4,41.8
	c0.3-0.3,0.3-0.8,0-1.1l-0.3-0.3H32h-9.1l-0.3,0.3c-0.3,0.3-0.3,0.8,0,1.1l0.3,0.3H32h9.1L41.4,41.8z M42.9,22.9
	c0.4-0.4,0.4-0.9,0-1.3l-0.3-0.3H32H21.4l-0.3,0.3c-0.4,0.4-0.4,0.9,0,1.3l0.3,0.3H32h10.6L42.9,22.9z M47,18c0.3-0.3,0.3-0.8,0-1.1
	l-0.3-0.3H32H17.3L17,16.9c-0.3,0.3-0.3,0.8,0,1.1l0.3,0.3H32h14.7L47,18z"/>
</svg>
