# Exported from Figuro at https://www.figuro.io

mtllib newscene.mtl
o rectangle1
v 0.03805516327582481 1 -128.32924229660108
v 128.01841000922704 1 -128.32924229660108
v 128.01841000922704 1 -0.3504416751491135
v 0.03805516327582481 1 -0.3504416751491135
# 4 vertices
vt 0.00014865298154619067 1.501286102721098
vt 0.5000719140985431 1.501286102721098
vt 0.5000719140985431 1.0013689127935512
vt 0.00014865298154619067 1.0013689127935512
# 4 uvs
vn 0 1 0
vn 0 1 0
vn 0 1 0
vn 0 1 0
# 4 normals
usemtl 009966
f 4/4/4 3/3/3 2/2/2 1/1/1 
# 1 polygons