<svg xmlns="http://www.w3.org/2000/svg" viewBox="0 0 24 30" x="0px" y="0px"><path d="M19.189,18.757,20,22H4l.811-3.243A1,1,0,0,1,5.781,18h.933c1.644-1.726,2.235-4.918,2.449-7h5.674c.214,2.082.8,5.274,2.449,7h.933A1,1,0,0,1,19.189,18.757ZM7,8A1,1,0,0,0,8,9h8a1,1,0,0,0,0-2h-.635a3.523,3.523,0,0,0,.278-1.357,3.643,3.643,0,0,0-7.286,0A3.523,3.523,0,0,0,8.635,7H8A1,1,0,0,0,7,8Z"/><text x="0" y="39" fill="#000000" font-size="5px" font-weight="bold" font-family="'Helvetica Neue', Helvetica, Arial-Unicode, Arial, Sans-serif">Created by Royyan Wijaya</text><text x="0" y="44" fill="#000000" font-size="5px" font-weight="bold" font-family="'Helvetica Neue', Helvetica, Arial-Unicode, Arial, Sans-serif">from the Noun Project</text></svg>